<svg viewBox="83.88 45.36 84.6 49.32000000000001" xmlns:xlink="http://www.w3.org/1999/xlink" version="1.1" xmlns="http://www.w3.org/2000/svg" id="Layer_1" style="max-height: 500px" width="84.6" height="49.32000000000001">
  
  <defs>
    <style>
      .st0 {
        fill: #231f20;
      }

      .st1 {
        clip-path: url(#clippath);
      }

      .st2 {
        fill: url(#GradientFill_3);
      }
    </style>
    <linearGradient gradientUnits="userSpaceOnUse" y2="69.76" x2="167.51" y1="69.76" x1="85.03" data-name="GradientFill 3" id="GradientFill_3">
      <stop stop-color="#328fce" offset="0"/>
      <stop stop-color="#313d98" offset="1"/>
    </linearGradient>
    <clipPath id="clippath">
      <path d="M135.44,75.1v3.56h-7.13v-3.56h7.13ZM104.94,79.19c1.67,0,3.02,1.35,3.02,3.02s-1.35,3.02-3.02,3.02-3.02-1.35-3.02-3.02,1.35-3.02,3.02-3.02ZM101.92,69.76c0-1.67,1.35-3.02,3.02-3.02s3.02,1.35,3.02,3.02-1.35,3.02-3.02,3.02-3.02-1.35-3.02-3.02ZM131.88,85.79v3.56h-5.36v-3.56h5.36ZM142.57,85.79v3.56h-7.13v-3.56h-3.56v-3.56h7.13v3.56h3.56ZM142.57,75.1h3.56v10.69h-3.56v-3.56h-3.56v-3.56h3.56v-3.56ZM149.69,71.54v3.56h-3.56v-3.56h3.56ZM153.26,71.54h-3.56v-3.56h3.56v3.56ZM163.95,64.41h3.56v-7.13h-3.56v7.13ZM160.38,50.16h3.56v3.56h3.56v-7.13h-7.13v3.56ZM163.95,67.98h3.56v7.13h-3.56v-3.56h-3.56v-10.69h-3.56v-7.13h-3.56v-3.56h3.56v-3.56h-7.12v7.13h-3.56v7.13h3.56v-7.13h3.56v7.13h3.56v7.13h-3.56v-3.56h-7.13v7.13h-3.56v-10.69h-3.56v-7.13h3.56v-3.56h-3.56v-3.56h-3.56v3.56h3.56v3.56h-3.56v7.13h3.56v10.69h3.56v3.56h-7.13v-3.56h-9.66v-3.56h9.66v-3.56h-3.56v-3.56h-3.56v-3.56h3.56v-3.56h-6.91v-3.56h6.91v-3.56h-46.86v11.58c6.39,0,11.58,5.19,11.58,11.58s-5.19,11.58-11.58,11.58v11.58c13.17,0,30.12,0,43.29,0h3.56v-3.56h3.56v3.56h7.13v-3.56h3.56v3.56h3.56v-3.56h-3.56v-3.56h3.56v-10.69h3.56v3.56h3.56v3.56h-3.56v3.56h3.56v-3.56h7.13v3.56h-3.56v3.56h-7.13v3.56h7.13v-3.56h3.56v3.56h3.56v-3.56h-3.56v-3.56h3.56v-7.13h-3.56v-3.56h-3.56v3.56h-3.56v-3.56h-3.56v-3.56h3.56v-3.56h7.13ZM104.94,60.33c-1.67,0-3.02-1.35-3.02-3.02s1.35-3.02,3.02-3.02,3.02,1.35,3.02,3.02-1.35,3.02-3.02,3.02Z" class="st2"/>
    </clipPath>
  </defs>
  <g>
    <path d="M46.42,121.2v-10.77h-7.31v-5h20.77v5h-7.31v10.77h-6.15Z" class="st0"/>
    <path d="M68.07,105.41v15.77h-6.15v-15.77h6.15Z" class="st0"/>
    <path d="M91.38,114.64c-.39,5.33-5.06,6.92-10.73,6.92-5.91-.01-10.79-1.72-10.77-7.7v-1.15c-.02-5.96,4.86-7.67,10.77-7.7,5.68.01,10.35,1.61,10.73,6.92h-6.3c-.57-1.55-2.32-1.91-4.43-1.91-2.51.04-4.65.48-4.61,3.07v.39c-.04,2.57,2.1,3.04,4.61,3.07,2.11,0,3.87-.38,4.43-1.92h6.3Z" class="st0"/>
    <path d="M99.36,115.79v5.38h-6.15v-15.77h6.15v5.38h2.69l5.78-5.38h8.07l-8.18,7.88,8.18,7.88h-8.07l-5.78-5.38h-2.69Z" class="st0"/>
    <path d="M116.76,105.43h18.45v4.04h-12.31v2.02h12.31v3.65h-12.31v2.02h12.31v4.05h-18.45v-15.77Z" class="st0"/>
    <path d="M144.44,121.2v-10.77h-7.31v-5h20.77v5h-7.31v10.77h-6.15Z" class="st0"/>
    <path d="M166.09,105.41v15.77h-6.15v-15.77h6.15Z" class="st0"/>
    <path d="M169.36,105.43h19.23v5h-13.08v1.92h11.54v4.61h-11.54v4.24h-6.15v-15.77Z" class="st0"/>
    <path d="M200.97,111.09l4.62-5.65h7.3l-8.85,10.38v5.38h-6.15v-5.38l-8.85-10.38h7.31l4.61,5.65Z" class="st0"/>
  </g>
  <path d="M79.77,130.76h3.13v2.65h-.9l-.09-.72c-.54.53-1.35.72-2.13.72-1.74,0-3.16-.51-3.15-2.25v-.34c0-1.75,1.41-2.25,3.15-2.25,1.6,0,2.92.44,3.12,1.86h-1.91c-.11-.15-.28-.26-.49-.31-.21-.06-.45-.08-.72-.08-.74.01-1.36.15-1.35.9v.11c-.01.76.61.89,1.35.9.71,0,1.16-.04,1.43-.39h-1.45v-.79Z" class="st0"/>
  <path d="M83.73,128.68h5.4v1.18h-3.6v.59h3.6v1.07h-3.6v.59h3.6v1.18h-5.4v-4.61Z" class="st0"/>
  <path d="M91.83,133.3v-3.15h-2.14v-1.46h6.07v1.46h-2.14v3.15h-1.8Z" class="st0"/>
  <path d="M101.13,128.68v4.61h-1.8v-4.61h1.8Z" class="st0"/>
  <path d="M106.58,128.68h1.8v4.61h-2.02l-2.48-2.82v2.82h-1.8v-4.61h2.47l2.02,2.44v-2.44Z" class="st0"/>
  <path d="M111.19,131.94v1.35h-1.8v-1.35h1.8Z" class="st0"/>
  <path d="M117.03,130.76h3.13v2.65h-.9l-.09-.72c-.54.53-1.35.72-2.13.72-1.74,0-3.16-.51-3.15-2.25v-.34c0-1.75,1.41-2.25,3.15-2.25,1.6,0,2.92.44,3.12,1.86h-1.91c-.11-.15-.28-.26-.49-.31-.21-.06-.45-.08-.72-.08-.74.01-1.36.15-1.35.9v.11c-.01.76.61.89,1.35.9.71,0,1.16-.04,1.43-.39h-1.45v-.79Z" class="st0"/>
  <path d="M120.98,128.68h5.4v1.18h-3.6v.59h3.6v1.07h-3.6v.59h3.6v1.18h-5.4v-4.61Z" class="st0"/>
  <path d="M129.08,133.3v-3.15h-2.14v-1.46h6.07v1.46h-2.14v3.15h-1.8Z" class="st0"/>
  <path d="M136.59,128.68h5.4v1.18h-3.6v.59h3.6v1.07h-3.6v.59h3.6v1.18h-5.4v-4.61Z" class="st0"/>
  <path d="M147.09,128.68h2.25l-2.42,2.31,2.42,2.31h-2.25l-1.29-1.35-1.29,1.35h-2.25l2.42-2.31-2.42-2.31h2.25l1.29,1.35,1.29-1.35Z" class="st0"/>
  <path d="M155.19,131.38c-.11,1.56-1.48,2.02-3.14,2.02-1.73,0-3.16-.5-3.15-2.25v-.34c0-1.74,1.42-2.24,3.15-2.25,1.66,0,3.03.47,3.14,2.02h-1.84c-.17-.45-.68-.56-1.3-.56-.73.01-1.36.14-1.35.9v.11c-.01.75.61.89,1.35.9.62,0,1.13-.11,1.3-.56h1.84Z" class="st0"/>
  <path d="M157.52,128.68v4.61h-1.8v-4.61h1.8Z" class="st0"/>
  <path d="M160.22,133.3v-3.15h-2.14v-1.46h6.07v1.46h-2.14v3.15h-1.8Z" class="st0"/>
  <path d="M164.76,128.68h5.4v1.18h-3.6v.59h3.6v1.07h-3.6v.59h3.6v1.18h-5.4v-4.61Z" class="st0"/>
  <path d="M175.22,128.68c1.27-.02,2.21,1.05,2.2,2.31.01,1.25-.93,2.32-2.2,2.31h-4.1v-4.61h4.1ZM174.88,130.15h-1.97v1.69h1.97c.47,0,.73-.38.73-.84s-.26-.84-.73-.84Z" class="st0"/>
  <g>
    <path d="M135.44,75.1v3.56h-7.13v-3.56h7.13ZM104.94,79.19c1.67,0,3.02,1.35,3.02,3.02s-1.35,3.02-3.02,3.02-3.02-1.35-3.02-3.02,1.35-3.02,3.02-3.02ZM101.92,69.76c0-1.67,1.35-3.02,3.02-3.02s3.02,1.35,3.02,3.02-1.35,3.02-3.02,3.02-3.02-1.35-3.02-3.02ZM131.88,85.79v3.56h-5.36v-3.56h5.36ZM142.57,85.79v3.56h-7.13v-3.56h-3.56v-3.56h7.13v3.56h3.56ZM142.57,75.1h3.56v10.69h-3.56v-3.56h-3.56v-3.56h3.56v-3.56ZM149.69,71.54v3.56h-3.56v-3.56h3.56ZM153.26,71.54h-3.56v-3.56h3.56v3.56ZM163.95,64.41h3.56v-7.13h-3.56v7.13ZM160.38,50.16h3.56v3.56h3.56v-7.13h-7.13v3.56ZM163.95,67.98h3.56v7.13h-3.56v-3.56h-3.56v-10.69h-3.56v-7.13h-3.56v-3.56h3.56v-3.56h-7.12v7.13h-3.56v7.13h3.56v-7.13h3.56v7.13h3.56v7.13h-3.56v-3.56h-7.13v7.13h-3.56v-10.69h-3.56v-7.13h3.56v-3.56h-3.56v-3.56h-3.56v3.56h3.56v3.56h-3.56v7.13h3.56v10.69h3.56v3.56h-7.13v-3.56h-9.66v-3.56h9.66v-3.56h-3.56v-3.56h-3.56v-3.56h3.56v-3.56h-6.91v-3.56h6.91v-3.56h-46.86v11.58c6.39,0,11.58,5.19,11.58,11.58s-5.19,11.58-11.58,11.58v11.58c13.17,0,30.12,0,43.29,0h3.56v-3.56h3.56v3.56h7.13v-3.56h3.56v3.56h3.56v-3.56h-3.56v-3.56h3.56v-10.69h3.56v3.56h3.56v3.56h-3.56v3.56h3.56v-3.56h7.13v3.56h-3.56v3.56h-7.13v3.56h7.13v-3.56h3.56v3.56h3.56v-3.56h-3.56v-3.56h3.56v-7.13h-3.56v-3.56h-3.56v3.56h-3.56v-3.56h-3.56v-3.56h3.56v-3.56h7.13ZM104.94,60.33c-1.67,0-3.02-1.35-3.02-3.02s1.35-3.02,3.02-3.02,3.02,1.35,3.02,3.02-1.35,3.02-3.02,3.02Z" class="st2"/>
    <g class="st1">
      <rect height="46.32" width="82.48" y="46.6" x="85.03" class="st2"/>
    </g>
  </g>
</svg>